<svg width="250" height="160" viewBox="0 0 250 160" fill="none" xmlns="http://www.w3.org/2000/svg">
<path d="M119.648 0.205124C105.508 1.62238 92.9688 10.7412 86.875 24.0559C81.4648 35.8228 81.7773 49.5291 87.7148 61.0909C89.0039 63.5897 91.0742 66.7412 92.6758 68.6433L93.7305 69.8741L93.1641 70.3963C92.3047 71.1795 92.0312 71.9254 91.6992 74.2191C91.2891 77.2028 91.6992 79.5897 93.1055 82.6107C93.418 83.2634 93.6133 84.0839 93.6523 84.8858C93.7109 85.6876 93.8867 86.4149 94.1602 86.9371C94.4336 87.4592 94.6484 88.2984 94.7461 89.324C94.8242 90.2005 95.2148 92.5501 95.5859 94.5454C95.957 96.5408 96.4062 99.2634 96.582 100.587C96.7578 101.911 96.9531 103.124 97.0312 103.273C97.1094 103.478 97.0508 103.534 96.8555 103.459C96.6992 103.403 95.3906 102.9 93.9453 102.378C92.5 101.837 91.2695 101.371 91.2305 101.333C91.1914 101.296 91.4062 100.401 91.6992 99.3566C92.1875 97.7156 92.2656 97.1189 92.2461 95.2914C92.207 91.5618 92.0508 90.5548 91.3281 89.5478C90.9766 89.0629 90.6055 88.3357 90.4883 87.9254C90.3711 87.5151 89.9023 86.2098 89.4727 85.035C88.5156 82.5361 87.9102 81.8089 86.0547 81.007C84.8047 80.4662 83.4766 80.3543 81.4258 80.6527L80.5078 80.7832L79.3164 79.2914C78.2812 77.986 78.0273 77.7809 77.3047 77.613C76.8359 77.5198 75.8984 77.296 75.2148 77.1096C74.5117 76.9417 73.75 76.8485 73.457 76.9231C72.7344 77.0909 71.2891 77.035 70.8594 76.8112C70.3906 76.5688 68.1641 74.4056 68.1641 74.1818C68.1641 73.8089 66.7188 72.5408 66.2891 72.5408C66.0352 72.5408 65.4297 72.2424 64.9414 71.8881C63.9062 71.1422 63.1836 70.9743 61.3477 71.0862C60.2734 71.1422 59.8828 71.2541 59.3164 71.6643C58.9258 71.9441 58.5742 72.1678 58.5156 72.1678C58.457 72.1678 58.0273 72.4102 57.5586 72.7273C57.0703 73.0256 56.543 73.2867 56.3867 73.2867C55.9766 73.2867 55.2734 72.4289 54.6094 71.1235C54.043 69.986 52.793 68.8112 52.1289 68.8112C51.9336 68.8112 51.4648 68.6061 51.0742 68.3636C50.1367 67.7482 48.9062 67.5991 47.2266 67.8601C45.4297 68.1399 43.2031 68.979 43.0469 69.4266C42.9883 69.613 42.2266 70.7692 41.3672 72.0186C39.3359 74.9277 39.0234 75.6177 38.8867 77.5758L38.7695 79.1795L29.8828 76.8671C23.6914 75.2448 20.9375 74.4615 20.8203 74.2378C20.4297 73.5478 18.8477 72.3543 17.5195 71.7389C16.7578 71.366 14.5703 70.6387 12.6953 70.1165C10.8203 69.5944 7.24609 68.5315 4.74609 67.7669C2.26562 67.0023 0.175781 66.3869 0.117188 66.3869C0.0585938 66.3869 0 66.5921 0 66.8531C0 67.3566 3.26172 71.4779 5.35156 73.6224C8.51562 76.8485 11.8555 78.2657 16.543 78.4149L18.5352 78.4709L27.7148 81.958C32.7539 83.8788 37.2461 85.4825 37.6953 85.5385C38.2617 85.6131 38.5938 85.7809 38.8086 86.0979C39.1016 86.5268 39.082 86.5827 38.4961 87.2914C38.1445 87.7016 37.7734 88.2984 37.6562 88.634C37.5391 88.9697 37.3828 91.3753 37.3047 93.986C37.1484 98.4056 37.0898 98.9091 36.5234 101.166C35.7422 104.317 35.5469 107.375 36.0156 109.016C36.2109 109.613 36.6992 110.657 37.1094 111.329C37.5195 112 38.5742 113.846 39.4531 115.431C40.332 117.016 41.6602 119.291 42.3828 120.466C43.1055 121.641 43.9062 122.984 44.1992 123.45C44.4727 123.916 45.4492 125.203 46.3672 126.34C48.5742 129.044 49.2969 130.387 49.9023 132.942C50.8203 136.783 50.9766 139.077 50.9766 148.159C50.9766 153.249 51.0742 156.886 51.1914 157.389C51.6211 159.217 52.9883 159.758 56.3281 159.441C58.9648 159.198 62.5781 159.329 63.5547 159.72C64.2383 160 65.2539 160.019 72.3438 159.963C80.9375 159.888 80.9766 159.869 81.4258 158.937C81.8164 158.117 81.7578 157.762 80.0977 150.303C79.707 148.569 79.5508 147.319 79.1016 142.732C78.9258 141.035 78.9258 140.103 79.082 139.096C79.375 137.343 81.0156 132.681 82.0117 130.779C82.4414 129.977 82.8516 129.063 82.9297 128.765C83.1055 128.019 84.2969 125.557 84.5508 125.427C84.6484 125.352 84.9609 124.867 85.2539 124.326C85.5273 123.804 86.0547 122.853 86.4258 122.238C86.7969 121.622 87.2266 120.69 87.3828 120.186C87.793 118.807 89.8438 106.797 89.8438 105.716C89.8438 105.417 89.9414 105.175 90.0977 105.175C90.2148 105.175 91.9922 105.716 94.0234 106.368L97.7344 107.543L98.0469 108.457C98.5156 109.744 99.1211 110.844 99.7852 111.552C100.078 111.888 100.488 112.671 100.664 113.287C100.859 113.902 101.152 114.611 101.348 114.872C101.816 115.524 102.93 118.135 102.93 118.601C102.93 119.105 103.223 119.646 103.984 120.485C104.316 120.858 104.766 121.38 105 121.641C105.469 122.182 107.754 128.093 108.535 130.816C109.062 132.606 109.082 132.848 109.043 136.597C109.023 141.184 108.711 143.776 107.598 148.625C106.289 154.387 105.879 156.401 105.742 157.65L105.605 158.844L106.562 159.366L107.5 159.907L115.625 159.963C120.078 160 125.137 159.944 126.855 159.832C130.625 159.608 129.473 159.608 135.156 159.739C142.871 159.907 143.047 159.907 143.594 159.776C144.336 159.571 145.312 158.732 145.684 157.949C145.957 157.371 145.996 155.991 146.035 146.387C146.074 132.737 146.27 130.107 147.676 124.457C148.535 120.951 149.062 120 152.305 116.084C154.238 113.753 155.938 111.385 156.152 110.769C156.23 110.564 156.504 110.34 156.797 110.284C157.09 110.228 159.238 109.65 161.562 109.016L165.801 107.86L165.898 108.513C167.266 117.259 167.559 118.471 168.848 120.97C169.434 122.126 169.922 123.133 169.922 123.226C169.922 123.319 170.098 123.543 170.332 123.748C170.957 124.289 171.484 125.408 171.699 126.583C171.797 127.254 172.09 127.944 172.461 128.448C172.773 128.876 173.047 129.287 173.047 129.343C173.047 129.399 173.223 129.585 173.418 129.753C173.867 130.145 175.82 135.329 176.25 137.287C176.426 138.07 176.562 139.245 176.562 139.897C176.543 142.005 175.82 148.103 175.293 150.396C173.496 158.266 173.496 158.247 173.926 158.993C174.492 160 174.883 160.037 184.18 159.963C191.562 159.907 192.559 159.869 192.988 159.59C193.438 159.31 194.062 159.291 198.652 159.366C203.496 159.441 203.848 159.422 204.434 159.068C205.781 158.284 205.742 158.601 205.879 147.319C206.016 136.671 206.055 136.019 207.012 131.897C207.754 128.746 208.184 127.925 210.938 124.569C211.855 123.45 212.871 122.089 213.203 121.548C213.535 121.007 214.395 119.627 215.098 118.49C215.781 117.371 217.266 114.797 218.359 112.802C219.473 110.825 220.488 109.054 220.625 108.904C221.152 108.308 221.66 106.909 221.855 105.455C222.09 103.758 221.875 101.93 220.996 98.2564C220.664 96.9324 220.43 95.31 220.371 93.986L220.273 91.8415L222.734 90.8345C224.082 90.2937 225.254 89.7716 225.293 89.6783C225.352 89.6037 225.215 89.1935 225 88.7646C224.551 87.9068 224.531 87.9254 226.328 88.2797C227.012 88.4289 227.539 88.4475 227.539 88.3543C227.539 88.2611 227.402 87.9254 227.227 87.6084C226.934 87.0676 226.934 87.0303 227.266 87.1795C227.48 87.2727 228.047 87.3473 228.555 87.366C229.062 87.3846 229.59 87.4779 229.727 87.5897C229.863 87.7016 230.801 87.8881 231.797 88.0186C238.711 88.9324 244.883 85.7995 248.047 79.7203C250.312 75.3753 250.586 70.7506 248.828 66.1818C247.012 61.4079 243.066 57.8834 238.086 56.5594C236.152 56.0559 232.852 55.9813 231.055 56.3916C226.172 57.5105 221.875 61.0163 220 65.4172L219.57 66.4615L219.395 65.8089L219.219 65.1748L218.242 66.3683L217.285 67.5618L217.109 66.7785C217.012 66.3683 216.855 66.014 216.758 66.014C216.66 66.014 216.211 66.2005 215.781 66.4056C215.332 66.6294 214.922 66.7412 214.902 66.648C214.863 66.5548 214.648 66.1445 214.395 65.7529C214.023 65.1002 213.77 64.951 212.441 64.4848C211.602 64.2051 210.312 63.8695 209.551 63.7576C207.676 63.4779 206.641 63.7389 205.039 64.8951C204.355 65.3799 203.574 65.8275 203.32 65.8648C202.969 65.9021 202.695 66.2378 202.168 67.2075C201.562 68.345 201.367 68.5501 200.703 68.7552C199.922 68.9977 198.73 68.9231 198.516 68.6061C198.457 68.5128 198.105 68.4382 197.734 68.4382C196.836 68.4382 196.504 69.0536 196.855 70.0792C197.246 71.1795 197.109 71.4406 195.996 71.7203C194.727 72.0373 194.746 72.0373 194.863 71.6084C195.059 70.9184 194.707 69.5758 194.219 68.9977C193.945 68.6993 193.438 68.3636 193.105 68.289C192.383 68.1212 190.137 68.4755 189.141 68.9231C188.457 69.2401 185.547 72.1305 185.547 72.5035C185.547 72.6154 185.312 72.9324 185.02 73.1935C184.551 73.6224 184.355 73.6597 183.594 73.5664C182.617 73.4545 182.363 73.4359 179.746 73.4545C178.027 73.4732 177.93 73.4918 177.266 74.0326C176.895 74.3496 176.543 74.8531 176.465 75.1515C176.289 75.8788 174.805 77.3893 174.238 77.3893C174.004 77.3893 173.496 77.2587 173.086 77.0909C172.227 76.7366 170.996 76.8485 169.375 77.4266C167.93 77.9301 166.621 79.1981 165.801 80.8392C165.371 81.7156 165.137 82.014 165.039 81.8461C164.59 81.0816 164.375 78.9184 164.414 75.2448C164.453 71.0117 164.219 68.1026 163.77 66.6107C163.438 65.5664 162.754 64.9324 160.117 63.2541L158.613 62.2844L159.57 60.2517C161.855 55.4033 163.594 49.1935 164.16 43.9161C164.219 43.3007 164.316 42.6107 164.375 42.3683C164.434 42.0513 164.355 41.9021 164.023 41.7716L163.574 41.6037H164.043L164.512 41.5851L164.375 39.4778C163.281 22.5268 153.086 8.42889 137.695 2.53613C132.402 0.522141 125.469 -0.372971 119.648 0.205124ZM125.938 36.345C127.012 36.8671 128.223 38.2471 128.73 39.5151C129.531 41.5664 129.004 44.1958 127.441 45.8368C124.297 49.1748 118.73 47.31 118.008 42.6667C117.266 37.9114 121.797 34.331 125.938 36.345Z" fill="#313640"/>
</svg>
