<svg width="22" height="20" viewBox="0 0 22 20" fill="none" xmlns="http://www.w3.org/2000/svg">
    <path fill-rule="evenodd" clip-rule="evenodd"
        d="M7.10557 0.552786C7.27496 0.214002 7.62123 0 8 0H14C14.3788 0 14.725 0.214002 14.8944 0.552786L16.118 3H19.5C20.8807 3 22 4.11929 22 5.5V17.5C22 18.8807 20.8807 20 19.5 20H2.5C1.11929 20 0 18.8807 0 17.5V5.5C0 4.11929 1.11929 3 2.5 3H5.88197L7.10557 0.552786ZM8.11803 3H13.882L13.382 2H8.61803L8.11803 3ZM2.5 5C2.22386 5 2 5.22386 2 5.5V17.5C2 17.7761 2.22386 18 2.5 18H19.5C19.7761 18 20 17.7761 20 17.5V5.5C20 5.22386 19.7761 5 19.5 5H2.5ZM6 11.5C6 8.73857 8.23857 6.5 11 6.5C13.7614 6.5 16 8.73857 16 11.5C16 14.2614 13.7614 16.5 11 16.5C8.23857 16.5 6 14.2614 6 11.5ZM11 8.5C9.34313 8.5 8 9.84313 8 11.5C8 13.1569 9.34313 14.5 11 14.5C12.6569 14.5 14 13.1569 14 11.5C14 9.84313 12.6569 8.5 11 8.5Z"
        fill="currentColor" />
</svg>