<svg width="16" height="16" viewBox="0 0 16 16" fill="none" xmlns="http://www.w3.org/2000/svg">
    <path
        d="M9.87653 12.3884C9.88293 12.3861 9.88925 12.3835 9.89543 12.3807C9.95234 12.3547 10.0405 12.3208 10.0878 12.3026C10.1061 12.2956 10.1199 12.2902 10.1272 12.2872V12.2872C10.4774 12.1419 10.7011 11.879 10.7742 11.5268C10.8457 11.1823 10.7688 10.7707 10.5915 10.3288C11.7035 10.2698 12.4655 10.4324 13.4227 10.7422C13.593 10.7973 13.7448 10.8194 13.879 10.8194C14.2294 10.8194 14.4593 10.6682 14.5814 10.5564C14.8547 10.306 14.9704 9.91469 14.8835 9.53501C14.7872 9.11466 14.4681 8.79441 14.0081 8.65641C13.1949 8.41244 11.5313 7.91338 9.7045 8.8096C9.52553 8.56626 9.33318 8.32579 9.13447 8.09341L12.3654 5.41016C12.3709 5.40557 12.3762 5.40072 12.3813 5.39566C12.4862 5.29088 12.5439 5.15125 12.5439 5.0025C12.5439 4.85372 12.4862 4.7141 12.3813 4.60925L11.3763 3.60572C11.1596 3.38904 10.8067 3.389 10.5899 3.60572C10.5848 3.61082 10.58 3.6161 10.5754 3.62163L9.58953 4.80697C9.50678 4.90647 9.52034 5.05425 9.61987 5.13704C9.7194 5.21982 9.86718 5.20622 9.94993 5.10672L10.9267 3.93235C10.9606 3.90388 11.0132 3.90554 11.045 3.93738L12.05 4.94091C12.0719 4.96282 12.0752 4.98894 12.0752 5.00254C12.0752 5.015 12.0724 5.03804 12.0551 5.05869L8.82372 7.74219C8.73356 7.6436 8.64284 7.5471 8.55212 7.45322C8.55025 7.45129 8.54834 7.44938 8.54637 7.4475C8.44753 7.35207 8.34581 7.25663 8.24178 7.16185L9.23715 5.96513C9.31993 5.8656 9.30637 5.71785 9.20684 5.63507C9.10734 5.55232 8.95956 5.56588 8.87681 5.66538L7.88987 6.85191C7.67337 6.66754 7.44997 6.48888 7.22387 6.32141C8.24278 4.5266 7.82387 2.82347 7.61893 1.9905C7.50443 1.52444 7.20075 1.18985 6.78568 1.0725C6.41034 0.96641 6.01318 1.06238 5.74925 1.32294C5.5864 1.48369 5.33821 1.84647 5.50571 2.46963C5.77512 3.47466 5.89853 4.27313 5.76025 5.44679C5.28359 5.243 4.83865 5.15029 4.47056 5.22672C4.1184 5.29982 3.85546 5.52341 3.71018 5.87329C3.70721 5.88054 3.70178 5.89432 3.69475 5.91257C3.67656 5.95991 3.64268 6.048 3.61665 6.10485C3.61381 6.11104 3.61125 6.11738 3.60893 6.12379L3.31209 6.95775C3.31178 6.9586 3.31137 6.95941 3.31106 6.96025L2.81037 8.36669C2.80975 8.36847 2.80934 8.37029 2.80875 8.3721L2.08796 10.3972C2.08728 10.3989 2.0864 10.4006 2.08578 10.4024L1.86718 11.0175L0.881496 13.7868C0.700402 14.2969 0.754621 14.7253 1.02956 14.9668C1.17737 15.1342 1.39446 15.2195 1.65721 15.2195C1.82487 15.2195 2.01115 15.1847 2.20968 15.1143L4.97478 14.1312L5.59575 13.9108C5.59753 13.9101 5.59915 13.9093 5.6009 13.9086L7.62653 13.1884C7.6285 13.1877 7.63053 13.1873 7.6325 13.1865L9.03959 12.6861C9.0405 12.6858 9.04134 12.6854 9.04225 12.685L9.87653 12.3884ZM13.8733 9.10538C14.2759 9.22613 14.3927 9.49194 14.4265 9.63963C14.4752 9.85201 14.4117 10.0762 14.2648 10.2108C14.103 10.359 13.8551 10.3893 13.567 10.2962C12.5277 9.95982 11.6612 9.78097 10.3795 9.87241C10.2634 9.65063 10.1275 9.42469 9.97715 9.19876C11.6159 8.42819 13.1288 8.88204 13.8733 9.10538ZM5.9584 2.34816C5.8799 2.05613 5.92256 1.81053 6.07853 1.65657C6.22053 1.51641 6.44806 1.46425 6.65815 1.5236C6.804 1.56482 7.06359 1.69482 7.16375 2.10244C7.35231 2.86879 7.73593 4.42882 6.83887 6.04925C6.62678 5.90672 6.4145 5.77672 6.20543 5.66354C6.38428 4.32716 6.25543 3.45616 5.9584 2.34816ZM4.04725 6.29029C4.07831 6.22119 4.11312 6.13057 4.13225 6.08085C4.1369 6.06872 4.14043 6.0595 4.1424 6.05463C4.14262 6.05413 4.14284 6.05363 4.14303 6.05313C4.22971 5.84435 4.36406 5.72763 4.56578 5.68575C4.87318 5.62197 5.3125 5.73566 5.82671 5.99332C5.83828 6.0005 5.85062 6.00663 5.86353 6.01175C6.14456 6.15535 6.44725 6.34119 6.76278 6.56432C6.77118 6.57138 6.78 6.57813 6.78959 6.5841C6.79062 6.58475 6.79175 6.58516 6.79281 6.58579C7.2509 6.91229 7.73496 7.31591 8.21793 7.78194C8.35709 7.926 8.49047 8.07013 8.61815 8.21369C8.61878 8.21447 8.61931 8.21532 8.61993 8.2161C8.62184 8.21841 8.624 8.22041 8.626 8.22263C8.9299 8.56488 9.20003 8.90341 9.43068 9.2286C9.43803 9.24116 9.44631 9.25285 9.45553 9.26351C9.6875 9.59357 9.878 9.90916 10.0217 10.2002C10.0273 10.215 10.0342 10.2291 10.0424 10.2423C10.2756 10.7257 10.376 11.1385 10.3152 11.4316C10.2734 11.6333 10.1566 11.7676 9.94762 11.8543C9.94712 11.8545 9.94662 11.8547 9.94612 11.8549C9.94122 11.8569 9.932 11.8604 9.91981 11.8651C9.87006 11.8842 9.77943 11.919 9.71028 11.95L9.12203 12.1592C8.81159 11.1646 7.94547 10.0809 7.42909 9.49572C7.34343 9.39869 7.19534 9.38944 7.09828 9.47507C7.00122 9.56069 6.99196 9.70882 7.07762 9.80588C7.89865 10.7364 8.47156 11.6365 8.68015 12.3163L7.67343 12.6743C7.28853 11.9152 6.63547 11.0417 5.8139 10.1903C5.81193 10.1883 5.80993 10.1863 5.8079 10.1843C4.95612 9.36322 4.08218 8.71057 3.32275 8.32585L3.68071 7.32007C4.39025 7.53904 5.35637 8.16426 6.31775 9.03294C6.41378 9.11972 6.56196 9.11219 6.64878 9.01616C6.73556 8.92013 6.72806 8.77191 6.632 8.68513C5.61818 7.76907 4.61812 7.12472 3.83793 6.87841L4.04725 6.29029ZM5.61047 13.4077C5.24193 12.8672 4.77434 12.2991 4.24871 11.7546C4.24675 11.7525 4.24478 11.7506 4.24275 11.7486C3.69787 11.2233 3.1295 10.756 2.58887 10.3877L3.16409 8.7716C3.86396 9.13697 4.69325 9.76132 5.47953 10.5188C6.23731 11.3045 6.86197 12.1333 7.22756 12.8327L5.61047 13.4077ZM4.82715 13.6862L3.996 13.9812C3.71528 13.6244 3.40587 13.2708 3.07453 12.9279C3.07262 12.9259 3.07071 12.924 3.06878 12.9222C2.72578 12.591 2.3719 12.2818 2.015 12.0013L2.30753 11.1781L2.42621 10.8447C2.91371 11.1861 3.42318 11.6098 3.9144 12.0831C4.38784 12.5739 4.81168 13.083 5.15328 13.5702L4.82715 13.6862ZM2.05287 14.6726C1.73403 14.7856 1.48103 14.7775 1.37606 14.6508C1.36659 14.6394 1.35606 14.6289 1.34462 14.6194C1.21803 14.5151 1.21006 14.2625 1.32318 13.9438L1.8484 12.4681C2.15012 12.7115 2.44915 12.9756 2.74031 13.2566C3.02131 13.5475 3.28546 13.8463 3.52896 14.1477L2.05287 14.6726Z"
        fill="currentColor" />
    <path
        d="M12.1143 1.99522L12.706 2.41316C12.7082 2.41828 12.7132 2.43185 12.7188 2.46253L12.8452 3.14653C12.8563 3.21953 12.8834 3.38141 13.0373 3.44406C13.0726 3.45841 13.1068 3.46431 13.1394 3.46431C13.2518 3.46431 13.3445 3.39425 13.3911 3.35906L13.9392 2.93697C13.9509 2.92938 13.9825 2.92116 13.9957 2.92166L14.6835 3.01319C14.7562 3.02231 14.9263 3.04372 15.0304 2.911C15.1331 2.78019 15.0758 2.62544 15.0496 2.55703L14.8159 1.90097C14.8057 1.87172 14.8033 1.85797 14.8028 1.85281L15.106 1.19353C15.1393 1.12669 15.2113 0.977283 15.1234 0.837971C15.034 0.696283 14.8662 0.699346 14.7941 0.700752L14.0685 0.714908L13.5478 0.210252C13.5004 0.164533 13.3744 0.0431269 13.2066 0.0879081C13.0387 0.132721 12.9901 0.300752 12.9718 0.364002C12.9717 0.364377 12.9716 0.364721 12.9715 0.365096L12.7735 1.06128L12.1368 1.41225C12.0742 1.44691 11.9277 1.52803 11.9211 1.69544C11.9147 1.86035 12.0521 1.954 12.1143 1.99522ZM13.0202 1.46053C13.1602 1.38278 13.195 1.29397 13.2207 1.20222L13.3671 0.687783L13.7358 1.04516L13.7496 1.05866C13.8167 1.12478 13.89 1.1841 14.048 1.1841C14.0502 1.1841 14.0526 1.1841 14.0549 1.18406L14.5993 1.17344L14.3752 1.66075C14.3048 1.81535 14.3375 1.95363 14.3742 2.05753L14.5393 2.52119L14.0593 2.45731C13.9268 2.43869 13.7601 2.48303 13.6543 2.56488L13.2692 2.86138L13.1798 2.37741C13.1614 2.27756 13.1207 2.13335 12.9804 2.03319L12.5426 1.72388L13.0202 1.46053Z"
        fill="currentColor" />
    <path
        d="M8.80158 2.34607L9.29821 2.63363C9.36486 2.6716 9.43746 2.68991 9.5104 2.68991C9.64939 2.68991 9.78955 2.62335 9.89146 2.49938L10.8078 1.39638C10.8828 1.30622 10.9134 1.186 10.8918 1.06653C10.8677 0.933534 10.7829 0.813909 10.6648 0.746409L9.7513 0.218721C9.6333 0.150878 9.48677 0.138065 9.35936 0.184378C9.24565 0.225721 9.15749 0.312221 9.11771 0.420815L8.62005 1.76432C8.53346 1.99563 8.60837 2.235 8.80158 2.34607ZM9.05933 1.92788L9.53765 0.636628L10.4106 1.14094L9.53018 2.20082C9.52415 2.20816 9.51843 2.21335 9.51383 2.21688L9.05349 1.95032C9.05424 1.94453 9.05593 1.93694 9.05933 1.92788Z"
        fill="currentColor" />
    <path
        d="M15.8897 4.39906C15.789 4.27962 15.6349 4.20834 15.4775 4.20834H14.0941C13.9369 4.20834 13.7828 4.27975 13.682 4.39934C13.5925 4.50553 13.5556 4.63618 13.5781 4.76715L13.8951 6.62019C13.9444 6.90706 14.1518 7.09978 14.4112 7.09978H15.1613C15.4207 7.09978 15.6281 6.90706 15.6775 6.6199L15.9935 4.76725C16.0161 4.63603 15.9792 4.50525 15.8897 4.39906ZM15.2155 6.54084C15.208 6.58425 15.1852 6.63109 15.1614 6.63109H14.4112C14.3846 6.63109 14.3636 6.57831 14.3572 6.541L14.0421 4.69947C14.0512 4.68987 14.0729 4.67709 14.0942 4.67709H15.4775C15.499 4.67709 15.5206 4.68975 15.5297 4.69918L15.2155 6.54084Z"
        fill="currentColor" />
    <path
        d="M1.32041 7.41107C1.36285 7.41107 1.40597 7.40551 1.4491 7.3941L2.17291 7.19979C2.42457 7.13313 2.57538 6.8931 2.54819 6.60263L2.37366 4.73035C2.36119 4.59769 2.29132 4.481 2.17694 4.40169C2.04863 4.31275 1.88157 4.28413 1.73063 4.32504L0.394941 4.68297C0.242847 4.72341 0.112347 4.83197 0.0458474 4.97341C-0.0133713 5.09932 -0.0151838 5.23538 0.0406287 5.35619L0.826535 7.06416C0.927347 7.28254 1.116 7.41107 1.32041 7.41107ZM0.515441 5.13594L0.516097 5.13575L1.85253 4.77763C1.87294 4.772 1.89688 4.77879 1.908 4.78557L2.08144 6.64622C2.0855 6.68982 2.07575 6.7406 2.05213 6.74685L1.32832 6.94116C1.30244 6.94813 1.26807 6.90232 1.25222 6.86791L0.471129 5.17041C0.477504 5.15897 0.495004 5.14135 0.515441 5.13594Z"
        fill="currentColor" />
    <path
        d="M11.8321 14.1424L10.4192 13.1419C10.1927 12.9805 9.92207 12.9906 9.7456 13.167L9.25769 13.6547C9.0811 13.8311 9.07101 14.1018 9.23216 14.3277L10.2333 15.74C10.3072 15.8447 10.4211 15.9087 10.554 15.9201C10.568 15.9213 10.582 15.9219 10.5961 15.9219C10.7309 15.9219 10.865 15.867 10.9614 15.7706L11.8623 14.8702C11.9687 14.7639 12.0246 14.6117 12.0119 14.463C12.0005 14.33 11.9365 14.216 11.8321 14.1424ZM11.531 14.5386L10.6301 15.4391C10.623 15.4461 10.6123 15.4504 10.6039 15.4522L9.61416 14.056C9.58926 14.0211 9.58629 13.9931 9.58907 13.9862L10.0777 13.4974C10.0786 13.4972 10.08 13.497 10.0819 13.497C10.0924 13.497 10.1173 13.5023 10.1477 13.524L11.544 14.5127C11.5422 14.5211 11.5379 14.5317 11.531 14.5386Z"
        fill="currentColor" />
    <path
        d="M1.52023 2.0081C1.5203 2.00869 1.52176 2.02278 1.5047 2.07094L1.25076 2.78319C1.22345 2.85416 1.16373 3.01444 1.26855 3.14807C1.37495 3.28375 1.54539 3.26197 1.62858 3.25135L2.37186 3.15197C2.39089 3.15013 2.4343 3.16185 2.44839 3.17166L3.04545 3.63272C3.09633 3.67103 3.18976 3.74141 3.3033 3.74141C3.33645 3.74141 3.37133 3.73541 3.40736 3.72085C3.56445 3.65732 3.59295 3.48878 3.60486 3.41375L3.74111 2.67197C3.75073 2.62125 3.75867 2.60922 3.76039 2.60769L4.40739 2.15022C4.47661 2.10407 4.61486 2.00972 4.60767 1.84135C4.60039 1.671 4.44808 1.58732 4.38339 1.55178L3.68551 1.16675L3.4677 0.403378C3.44892 0.337097 3.39911 0.162034 3.22773 0.115909C3.05617 0.0696904 2.92495 0.196534 2.87548 0.244409L2.31795 0.78419L2.30464 0.797253L1.50883 0.782065C1.4343 0.780347 1.2598 0.776316 1.16833 0.921034C1.07823 1.06357 1.15133 1.214 1.18898 1.28888L1.52023 2.0081ZM2.31195 1.26622C2.47998 1.26966 2.55455 1.20947 2.62811 1.13653L3.0678 0.710534L3.23617 1.3006C3.26401 1.3996 3.29889 1.48813 3.44511 1.5695L3.99086 1.8706L3.49051 2.22438C3.34583 2.32578 3.30233 2.47003 3.28033 2.58582L3.17801 3.14282L2.73395 2.79994C2.63951 2.72775 2.49876 2.68335 2.37298 2.68335C2.35186 2.68335 2.33114 2.6846 2.31114 2.68719L1.75617 2.76138L1.94636 2.22794C1.98498 2.11891 2.01983 1.9731 1.94564 1.81147L1.68911 1.25432L2.31195 1.26622Z"
        fill="currentColor" />
    <path
        d="M15.6809 12.2678L14.9055 12.0761L14.4975 11.3948C14.4625 11.3358 14.3694 11.1793 14.1916 11.1788C14.1914 11.1788 14.1911 11.1788 14.1909 11.1788C14.0135 11.1788 13.9196 11.3349 13.8842 11.3937C13.8842 11.3939 13.8841 11.394 13.884 11.3942L13.4849 12.0606L13.4756 12.0761L12.6997 12.268C12.6276 12.286 12.4587 12.3282 12.4082 12.4909C12.3584 12.6515 12.4676 12.7781 12.5229 12.8406L13.0299 13.4507C13.0304 13.4521 13.0349 13.4657 13.0309 13.516L12.9709 14.2704C12.9625 14.3462 12.9461 14.5157 13.081 14.618C13.2183 14.7221 13.3779 14.6577 13.457 14.6257L14.1504 14.3367C14.1678 14.3302 14.2125 14.33 14.2298 14.3363L14.927 14.6266C14.9722 14.6449 15.0463 14.675 15.1278 14.675C15.1839 14.675 15.2435 14.6608 15.2995 14.6186C15.4351 14.5167 15.4191 14.3463 15.4112 14.2709L15.3502 13.5161C15.3463 13.4657 15.3508 13.4521 15.3516 13.4507L15.8591 12.8407C15.9143 12.7783 16.0234 12.652 15.9735 12.4912C15.923 12.3283 15.7537 12.286 15.6809 12.2678ZM14.9915 13.1507C14.8779 13.2869 14.8738 13.4373 14.883 13.5535L14.9287 14.1196L14.4102 13.9037C14.2796 13.8491 14.1035 13.849 13.9711 13.9036L13.4531 14.1196L13.4982 13.5531C13.5074 13.4374 13.5034 13.287 13.39 13.1511L12.9966 12.6774L13.6026 12.5276C13.7661 12.4876 13.823 12.4101 13.8757 12.3203L14.1905 11.7945L14.4945 12.3019L14.5054 12.3205C14.5581 12.4101 14.6151 12.4876 14.778 12.5275L15.385 12.6776L14.9915 13.1507Z"
        fill="currentColor" />
</svg>