<svg width="25" height="24" viewBox="0 0 25 24" fill="none" xmlns="http://www.w3.org/2000/svg">
<path d="M3.11029 1.02721C2.17055 1.64587 1.68188 2.07705 1.68188 2.30202C1.68188 2.50824 2.64042 3.57682 3.93727 4.85163C5.6476 6.52013 6.30541 7.0263 6.62493 6.98881C6.92564 6.95131 7.05721 6.78259 7.0948 6.40765C7.15118 5.90147 5.57242 0.783497 5.19652 0.314817C4.8958 -0.0601259 4.63267 0.03361 3.11029 1.02721Z" fill="white"/>
<path d="M10.3839 0.221245C10.0268 0.352475 10.0643 0.933637 10.8161 5.4892C11.3988 8.91993 11.5867 9.70731 11.8687 9.85729C12.0942 9.96977 12.3197 9.96977 12.5453 9.85729C12.8272 9.70731 13.0151 8.91993 13.5978 5.4892C14.3684 0.802407 14.406 0.371222 13.9737 0.202498C13.6166 0.0712676 10.7222 0.0712676 10.3839 0.221245Z" fill="white"/>
<path d="M16.9621 0.389907C16.6238 0.558631 16.2291 0.971069 16.0599 1.34601C15.233 3.07075 16.9245 4.87048 18.6724 4.13934C19.4994 3.80189 19.9129 3.16449 19.9129 2.24588C19.9129 1.36476 19.5558 0.76485 18.7852 0.37116C18.1086 0.0149635 17.7139 0.0149635 16.9621 0.389907Z" fill="white"/>
<path d="M18.6348 5.39533C17.0936 7.17631 15.7404 8.78857 15.6276 8.99478C15.3833 9.46346 15.6464 10.0259 16.1163 10.0259C16.4546 10.0259 23.5402 5.939 24.0101 5.45157C24.2357 5.2266 24.2545 5.07663 24.1041 4.73918C23.8034 4.08303 21.9803 2.15207 21.6984 2.15207C21.548 2.15207 20.176 3.61435 18.6348 5.39533Z" fill="white"/>
<path d="M0.366227 4.683C0.0279196 5.09544 0.347432 5.62036 0.948867 5.62036C1.32476 5.62036 1.39994 5.52663 1.39994 5.05795C1.39994 4.62676 1.30597 4.47678 1.00525 4.43929C0.798508 4.4018 0.497791 4.51428 0.366227 4.683Z" fill="white"/>
<path d="M14.6879 5.93893C14.124 6.50135 14.6879 7.40121 15.3833 7.02627C15.872 6.76381 15.8907 6.1639 15.4209 5.90144C14.9698 5.65773 14.9698 5.65773 14.6879 5.93893Z" fill="white"/>
<path d="M3.11028 7.43885C2.95992 7.68256 2.73438 8.095 2.60282 8.37621C2.43367 8.7699 2.24572 8.90113 1.85103 8.90113C1.13682 8.90113 0.385028 9.21983 0.23467 9.57603C0.15949 9.7635 0.366234 10.1197 0.81731 10.5696C1.47513 11.2445 1.49392 11.3008 1.38115 12.2944C1.28718 13.1192 1.32477 13.363 1.5691 13.5692C1.83223 13.7941 2.02018 13.7754 2.79077 13.4192L3.69292 12.988L4.46351 13.3817C4.89579 13.6067 5.36566 13.7754 5.51602 13.7754C5.98589 13.7754 6.17384 13.1942 6.00469 12.2756C5.85433 11.4695 5.87312 11.3945 6.49335 10.7758C7.35791 9.87598 7.33912 9.35106 6.43697 9.10735C6.04227 8.99486 5.5724 8.90113 5.38446 8.90113C5.17771 8.90113 4.91458 8.58243 4.63266 8.00126C4.144 6.97017 3.56136 6.7452 3.11028 7.43885Z" fill="white"/>
<path d="M8.82393 7.49501C8.48562 7.90745 8.80513 8.43237 9.40657 8.43237C9.78247 8.43237 9.85765 8.33864 9.85765 7.86996C9.85765 7.43877 9.76367 7.2888 9.46295 7.2513C9.25621 7.21381 8.95549 7.32629 8.82393 7.49501Z" fill="white"/>
<path d="M23.1456 8.75119C22.5817 9.3136 23.1456 10.2135 23.841 9.83852C24.3297 9.57606 24.3485 8.97615 23.8786 8.71369C23.4275 8.46998 23.4275 8.46998 23.1456 8.75119Z" fill="white"/>
<path d="M20.1008 10.5133C19.9881 10.7757 19.9129 11.0569 19.9129 11.1319C19.9129 11.2069 19.631 11.3381 19.3115 11.4319C18.8228 11.5818 18.6912 11.7131 18.6912 12.088C18.6912 12.4442 18.8228 12.5942 19.2927 12.7254C19.7249 12.8566 19.9317 13.0629 20.0445 13.4753C20.3076 14.4314 21.4165 14.2814 21.4165 13.2878C21.4165 12.9691 21.5292 12.8566 21.9051 12.8004C22.9764 12.6692 22.9764 11.5069 21.9051 11.3756C21.548 11.3194 21.4165 11.2069 21.4165 10.8882C21.4165 9.98833 20.4016 9.68838 20.1008 10.5133Z" fill="white"/>
<path d="M7.54586 11.5631C7.24514 11.8631 7.26394 12.2193 7.62104 13.2879C7.84658 13.944 7.99694 14.1315 8.24127 14.0565C8.41042 14.019 10.2711 13.3816 12.3949 12.6692L16.2479 11.3757L12.019 11.3569C8.95548 11.3382 7.71502 11.3944 7.54586 11.5631Z" fill="white"/>
<path d="M12.6393 14.094L8.4668 15.4813L8.67354 16.0437C8.76751 16.3437 8.91787 16.5874 8.97426 16.5874C9.04944 16.5874 10.7786 16.025 12.8084 15.3501C16.4922 14.1315 16.511 14.1315 16.7177 13.4754C16.8493 13.1004 16.9057 12.7817 16.8681 12.763C16.8493 12.7255 14.9322 13.3254 12.6393 14.094Z" fill="white"/>
<path d="M12.5829 16.925C10.8726 17.4874 9.46294 17.9748 9.42535 17.9936C9.29379 18.106 9.83884 19.0247 10.0268 19.0247C10.1584 19.0247 11.3424 18.6685 12.6769 18.2185C15.0262 17.4499 15.139 17.3749 15.4773 16.7C15.6652 16.3251 15.7968 15.9689 15.7592 15.9501C15.7216 15.9126 14.2932 16.3438 12.5829 16.925Z" fill="white"/>
<path d="M12.207 19.8494C10.835 20.3369 10.4403 20.5431 10.4779 20.7868C10.5155 20.9555 10.7974 21.7429 11.1357 22.549C11.7559 24.03 12.2446 24.4237 12.7145 23.8613C12.9024 23.6364 14.4624 19.587 14.4624 19.3245C14.4624 19.1183 14.0489 19.2308 12.207 19.8494Z" fill="white"/>
</svg>
