<svg width="15" height="24" viewBox="0 0 15 24" fill="none" xmlns="http://www.w3.org/2000/svg">
<path d="M14.5341 2.12906H12.5485L13.6839 0.790304C13.8526 0.591319 13.832 0.289911 13.6378 0.117035C13.4435 -0.0558874 13.1493 -0.0347467 12.9806 0.164285L11.3144 2.12901H4.99994C4.74266 2.12901 4.53411 2.34267 4.53411 2.60625C4.53411 2.86983 4.74266 3.08349 4.99994 3.08349H10.505L9.53593 4.22616C9.38133 4.18683 9.22215 4.16635 9.05963 4.16635C7.97154 4.16635 7.08633 5.07329 7.08633 6.18798C7.08633 6.21227 7.08784 6.23645 7.08867 6.26069C4.76989 7.00821 3.26269 6.97488 2.39432 6.80608C1.67589 6.66644 1.27696 6.41542 1.11906 6.29523C0.995202 5.7752 0.931695 5.2381 0.931695 4.69604V3.08353H2.14286C2.40013 3.08353 2.60868 2.86988 2.60868 2.6063C2.60868 2.34272 2.40013 2.12906 2.14286 2.12906H0.465825C0.208548 2.12906 0 2.34272 0 2.6063V4.69618C0 5.37062 0.08524 6.03911 0.253341 6.68294C1.08726 9.88278 3.83746 12.1619 7.03422 12.3651V20.796L1.72196 23.0828C1.51749 23.1708 1.40191 23.3943 1.44579 23.6171C1.48958 23.8398 1.68065 24 1.90246 24H13.0975C13.3193 24 13.5103 23.8398 13.5542 23.6171C13.598 23.3943 13.4824 23.1708 13.278 23.0828L7.96582 20.7961V12.3652C11.198 12.1613 13.9571 9.84988 14.7671 6.60391C14.9216 5.98342 15 5.34156 15 4.69618V2.6063C14.9999 2.34272 14.7914 2.12906 14.5341 2.12906ZM9.05953 5.12096C9.20997 5.12096 9.3547 5.15279 9.48949 5.2156C9.61696 5.275 9.73043 5.36021 9.82391 5.46381C9.26488 5.57856 8.67044 5.73747 8.04685 5.93884C8.1568 5.47032 8.56896 5.12096 9.05953 5.12096ZM10.0837 6.3842C9.99356 6.87949 9.56883 7.25571 9.05958 7.25571C8.74337 7.25571 8.45329 7.10866 8.2598 6.87105C8.90566 6.65978 9.51607 6.49694 10.0837 6.3842ZM10.7863 23.0456H4.21356L7.49991 21.6308L10.7863 23.0456ZM7.49995 11.4254C4.92806 11.4254 2.6273 9.88827 1.55871 7.57005C1.72022 7.62476 1.89954 7.67552 2.09861 7.71884C2.54398 7.81577 3.02404 7.8641 3.53736 7.8641C4.65276 7.8641 5.92564 7.63498 7.33995 7.18033C7.68324 7.80448 8.33593 8.21013 9.05953 8.21013C10.1316 8.21013 11.0061 7.32986 11.0321 6.23786C12.6707 6.06475 13.4735 6.43581 13.7876 6.64924C12.9542 9.47595 10.4085 11.4254 7.49995 11.4254ZM14.0683 4.69618C14.0683 5.02328 14.0446 5.34915 13.9991 5.67095C13.4236 5.37911 12.4346 5.11304 10.8316 5.30007C10.7202 5.06851 10.566 4.86024 10.3791 4.68718L11.7391 3.08353H14.0683V4.69618V4.69618Z" fill="white"/>
</svg>
