<svg width="24" height="24" viewBox="0 0 24 24" fill="none" xmlns="http://www.w3.org/2000/svg">
    <path fill-rule="evenodd" clip-rule="evenodd"
        d="M20.821 2.73372C21.2105 3.12528 21.2088 3.75844 20.8173 4.14793L19.7206 5.23886L21.722 7.2298C22.1151 7.62075 22.1151 8.2568 21.722 8.64774L18.5553 11.7977C18.1652 12.1858 17.535 12.1858 17.1449 11.7977L15.1359 9.79935L12.7789 12.144C13.7602 13.5062 14.126 15.2314 13.7585 16.8913L13.6979 17.1397C13.1459 19.2077 11.5226 20.8247 9.45479 21.3624C7.3835 21.9095 5.17619 21.3106 3.66257 19.7846C1.39529 17.4494 1.42773 13.7355 3.73541 11.44C5.80392 9.38238 9.01595 9.1455 11.3476 10.7468L14.4183 7.69229C14.4223 7.6881 14.4265 7.68394 14.4306 7.6798L17.5973 4.5298C17.6012 4.52588 17.6052 4.52199 17.6092 4.51814L19.4068 2.72999C19.7984 2.3405 20.4315 2.34217 20.821 2.73372ZM10.7175 12.8023L10.7235 12.8098C9.16286 11.3104 6.68007 11.3318 5.14589 12.8579C3.61459 14.3812 3.5931 16.8419 5.09 18.3837C6.09232 19.3942 7.56342 19.7934 8.94777 19.4277C10.321 19.0706 11.3991 17.9967 11.7655 16.6238C12.1296 15.26 11.7337 13.8069 10.7272 12.8117C10.7239 12.8086 10.7207 12.8055 10.7175 12.8023ZM16.5536 8.38917L17.8492 9.67777L19.5992 7.93777L18.3032 6.64879L16.5536 8.38917Z"
        fill="currentColor" />
</svg>