<svg width="24" height="24" viewBox="0 0 24 24" fill="none" xmlns="http://www.w3.org/2000/svg">
    <g clip-path="url(#clip0)">
        <path
            d="M9.48759 5.24696H14.5069C14.7029 5.24696 14.8612 5.09492 14.8612 4.90856C14.8612 4.72219 14.7029 4.57095 14.5069 4.57095H9.48759C9.29318 4.57095 9.13403 4.72219 9.13403 4.90856C9.1339 5.09492 9.29318 5.24696 9.48759 5.24696Z"
            fill="currentColor" />
        <path
            d="M13.9875 4.05416C14.2219 2.8157 15.1052 1.12044 15.1052 1.12044C15.1052 1.12044 11.3764 -0.579639 10.5107 0.20846C10.161 0.526086 11.0203 1.73813 10.7019 2.08928C10.3995 2.42527 8.88904 2.08928 8.88904 2.08928C8.88904 2.08928 9.47066 3.14285 9.7427 4.05416H13.9875Z"
            fill="currentColor" />
        <path
            d="M14.6628 5.74771C14.6132 5.75656 14.5604 5.76286 14.5083 5.76286H9.48988C9.40032 5.76286 9.31464 5.74529 9.23312 5.72049C5.74661 9.04061 3.85547 14.0222 3.85547 17.0263C3.85466 20.8776 7.78591 24 11.9996 24C16.2134 24 20.1446 20.8775 20.1446 17.0263C20.1445 13.9871 18.1973 9.46858 14.6628 5.74771ZM11.9988 19.5744C9.76044 19.5744 7.94599 17.7592 7.94599 15.52C7.94599 13.2816 9.76205 11.4671 11.9988 11.4671C14.2356 11.4671 16.0517 13.2824 16.0517 15.52C16.0517 17.7592 14.2372 19.5744 11.9988 19.5744Z"
            fill="currentColor" />
        <path
            d="M13.282 15.4504C13.0852 15.3168 12.7164 15.1727 12.17 15.02V13.3038C12.4941 13.3159 12.7308 13.4398 12.8805 13.6775C12.9597 13.8071 13.0069 13.9606 13.0253 14.1391H13.642C13.6301 13.7408 13.4996 13.4199 13.2484 13.1767C12.9987 12.9343 12.6395 12.7959 12.1716 12.7631V12.3015H11.8364V12.7703C11.3637 12.7751 10.9972 12.9207 10.7349 13.2079C10.4725 13.4951 10.3412 13.8168 10.3412 14.1744C10.3412 14.5743 10.4628 14.8871 10.706 15.1128C10.95 15.3384 11.326 15.4992 11.8364 15.596V17.5167C11.4388 17.4831 11.166 17.3344 11.0196 17.0688C10.9364 16.92 10.8853 16.6856 10.8684 16.3639H10.2428C10.2428 16.7679 10.3108 17.088 10.4453 17.3263C10.6893 17.7664 11.1549 18.008 11.8372 18.052V18.736H12.1724V18.052C12.598 18.0048 12.9228 17.9088 13.1501 17.7632C13.5565 17.5 13.7605 17.0551 13.7605 16.4303C13.7564 15.9991 13.598 15.6719 13.282 15.4504ZM11.8348 14.9535C11.5716 14.9023 11.3621 14.8095 11.2084 14.6782C11.0523 14.5461 10.974 14.3638 10.974 14.1311C10.974 13.9383 11.0412 13.7527 11.1717 13.5775C11.3037 13.4014 11.5244 13.307 11.8349 13.2959L11.8348 14.9535ZM13.0011 17.0943C12.8507 17.3695 12.5716 17.5159 12.1699 17.5351V15.6799C12.4635 15.7607 12.6731 15.8447 12.7971 15.9334C13.0139 16.0863 13.1203 16.3102 13.1203 16.6038C13.1203 16.7895 13.082 16.9527 13.0011 17.0943Z"
            fill="currentColor" />
    </g>
    <defs>
        <clipPath id="clip0">
            <rect width="24" height="24" fill="currentColor" />
        </clipPath>
    </defs>
</svg>