<svg width="16" height="16" viewBox="0 0 16 16" fill="none" xmlns="http://www.w3.org/2000/svg">
    <g clip-path="url(#clip0)">
        <path
            d="M15.8139 3.90742C15.6968 3.81886 15.5449 3.79027 15.4035 3.83027L8.77852 5.70526C8.57674 5.76238 8.43743 5.94657 8.43743 6.15629V12.5023C8.1614 12.3422 7.84134 12.25 7.49993 12.25C6.46606 12.25 5.62494 13.0911 5.62494 14.125C5.62494 15.1589 6.46606 16 7.49993 16C8.5338 16 9.37492 15.1589 9.37492 14.125C9.37492 14.0763 9.37492 8.38578 9.37492 8.38578L15.0624 6.7761V10.6273C14.7864 10.4672 14.4663 10.375 14.1249 10.375C13.091 10.375 12.2499 11.2161 12.2499 12.25C12.2499 13.2839 13.091 14.125 14.1249 14.125C15.1588 14.125 15.9999 13.2839 15.9999 12.25C15.9999 12.2084 15.9999 4.2813 15.9999 4.2813C15.9999 4.13442 15.9311 3.99602 15.8139 3.90742ZM7.49996 15.0625C6.98303 15.0625 6.56247 14.6419 6.56247 14.125C6.56247 13.6081 6.98303 13.1875 7.49996 13.1875C8.0169 13.1875 8.43746 13.6081 8.43746 14.125C8.43746 14.6419 8.0169 15.0625 7.49996 15.0625ZM14.1249 13.1875C13.608 13.1875 13.1874 12.7669 13.1874 12.25C13.1874 11.7331 13.608 11.3125 14.1249 11.3125C14.6419 11.3125 15.0624 11.7331 15.0624 12.25C15.0624 12.7669 14.6419 13.1875 14.1249 13.1875ZM15.0624 5.80182L9.37496 7.41147V6.51079L15.0624 4.90114V5.80182Z"
            fill="currentColor" />
        <path
            d="M6.5417 3.32791C5.5017 2.56554 4.7398 1.81048 4.21249 1.01951L3.67221 0.209174C3.55762 0.0373001 3.34403 -0.0392933 3.14637 0.0205502C2.94868 0.080425 2.81347 0.262643 2.81347 0.469205V7.81518C2.53744 7.65508 2.21737 7.56293 1.87597 7.56293C0.842098 7.56293 0.000976562 8.40405 0.000976562 9.43792C0.000976562 10.4718 0.842098 11.3129 1.87597 11.3129C2.90984 11.3129 3.75096 10.4718 3.75096 9.43792V1.98148C4.31118 2.70332 5.04749 3.39504 5.98742 4.08406C6.34811 4.34844 6.56345 4.77278 6.56345 5.21922C6.56345 5.99462 5.93261 6.62546 5.15721 6.62546C4.89833 6.62546 4.68846 6.83534 4.68846 7.09421C4.68846 7.35308 4.89833 7.56296 5.15721 7.56296C6.44954 7.56293 7.50095 6.51152 7.50095 5.21919C7.50095 4.47522 7.14232 3.76819 6.5417 3.32791ZM1.87597 10.3754C1.35903 10.3754 0.938473 9.95486 0.938473 9.43792C0.938473 8.92098 1.35903 8.50042 1.87597 8.50042C2.3929 8.50042 2.81347 8.92098 2.81347 9.43792C2.81347 9.95486 2.3929 10.3754 1.87597 10.3754Z"
            fill="currentColor" />
    </g>
    <defs>
        <clipPath id="clip0">
            <rect width="16" height="16" fill="currentColor" />
        </clipPath>
    </defs>
</svg>