<svg width="24" height="24" viewBox="0 0 24 24" fill="none" xmlns="http://www.w3.org/2000/svg">
    <path fill-rule="evenodd" clip-rule="evenodd"
        d="M2.29292 2.29289C2.68345 1.90237 3.31661 1.90237 3.70714 2.29289L21.7071 20.2929C22.0977 20.6834 22.0977 21.3166 21.7071 21.7071C21.3166 22.0976 20.6834 22.0976 20.2929 21.7071L13.6649 15.0791C13.1698 15.3473 12.6023 15.5 12 15.5C10.067 15.5 8.50003 13.933 8.50003 12C8.50003 11.3978 8.65268 10.8303 8.92088 10.3351L2.29292 3.70711C1.9024 3.31658 1.9024 2.68342 2.29292 2.29289ZM10.5023 11.9165C10.5008 11.9441 10.5 11.972 10.5 12C10.5 12.8284 11.1716 13.5 12 13.5C12.0281 13.5 12.0559 13.4992 12.0835 13.4977L10.5023 11.9165ZM12 7C11.4103 7 10.8278 7.0788 10.2569 7.22054C9.72085 7.35361 9.17845 7.02695 9.04539 6.49093C8.91232 5.95492 9.23898 5.41252 9.775 5.27946C10.4866 5.1028 11.2312 5 12 5C15.1096 5 17.8352 6.67673 19.7093 8.2301C20.6605 9.01854 21.4278 9.8047 21.9576 10.3937C22.2231 10.6888 22.4306 10.9362 22.5732 11.1119C22.6445 11.1997 22.6998 11.2698 22.7381 11.3191C22.7573 11.3438 22.7722 11.3633 22.7828 11.3772L22.7954 11.3939L22.7993 11.399L22.8006 11.4008C22.8008 11.401 22.8015 11.402 22 12C22.8015 12.598 22.8014 12.5982 22.8013 12.5983L22.8006 12.5993L22.7993 12.601L22.7954 12.6061L22.7828 12.6228C22.7722 12.6367 22.7572 12.6562 22.7381 12.6809C22.6998 12.7302 22.6445 12.8003 22.5732 12.8881C22.4306 13.0638 22.2231 13.3112 21.9576 13.6063C21.4277 14.1953 20.6604 14.9815 19.7092 15.7699C19.284 16.1223 18.6536 16.0634 18.3012 15.6382C17.9487 15.213 18.0077 14.5825 18.4329 14.2301C19.2914 13.5185 19.9885 12.8047 20.4707 12.2687C20.5569 12.1729 20.6361 12.083 20.7078 12C20.6361 11.917 20.5569 11.8271 20.4707 11.7313C19.9886 11.1953 19.2914 10.4815 18.4329 9.7699C16.6877 8.32327 14.4133 7 12 7ZM22 12L22.8013 12.5983C23.066 12.2435 23.0662 11.7567 22.8015 11.402L22 12ZM5.69886 8.36184C6.05131 8.78704 5.99233 9.41745 5.56712 9.7699C4.70868 10.4815 4.01151 11.1953 3.52932 11.7313C3.44312 11.8271 3.36398 11.917 3.29222 12C3.36398 12.083 3.44312 12.1729 3.52932 12.2687C4.01151 12.8047 4.70868 13.5185 5.56712 14.2301C7.31238 15.6767 9.58674 17 12 17C12.5947 17 13.1819 16.9199 13.7574 16.7759C14.2931 16.6419 14.8361 16.9676 14.9701 17.5034C15.1042 18.0391 14.7785 18.5821 14.2427 18.7162C13.5258 18.8955 12.7752 19 12 19C8.89047 19 6.16483 17.3233 4.2908 15.7699C3.33959 14.9815 2.57231 14.1953 2.04244 13.6063C1.77692 13.3112 1.5695 13.0638 1.42687 12.8881C1.35551 12.8003 1.30027 12.7302 1.26196 12.6809C1.2428 12.6562 1.22787 12.6367 1.21728 12.6228L1.20464 12.6061L1.20078 12.601L1.19946 12.5992C1.19926 12.599 1.19857 12.598 2.00003 12C1.19857 11.402 1.19866 11.4018 1.19875 11.4017L1.20078 11.399L1.20464 11.3939L1.21728 11.3772C1.22788 11.3633 1.2428 11.3438 1.26196 11.3191C1.30027 11.2698 1.35551 11.1997 1.42687 11.1119C1.5695 10.9362 1.77692 10.6888 2.04244 10.3937C2.57231 9.8047 3.33959 9.01855 4.29079 8.2301C4.716 7.87765 5.34641 7.93663 5.69886 8.36184ZM2.00003 12L1.19875 11.4017C0.934036 11.7565 0.93385 12.2433 1.19857 12.598L2.00003 12Z"
        fill="currentColor" />
</svg>