<svg width="24" height="24" viewBox="0 0 24 24" fill="none" xmlns="http://www.w3.org/2000/svg">
    <path fill-rule="evenodd" clip-rule="evenodd"
        d="M4.29075 8.2301C6.16479 6.67673 8.89043 5 12 5C15.1095 5 17.8352 6.67673 19.7092 8.2301C20.6604 9.01854 21.4277 9.8047 21.9576 10.3937C22.2231 10.6888 22.4305 10.9362 22.5731 11.1119C22.6445 11.1997 22.6997 11.2698 22.7381 11.3191C22.7572 11.3438 22.7721 11.3633 22.7827 11.3772L22.7954 11.3939L22.7992 11.399L22.8005 11.4008C22.8008 11.401 22.8014 11.402 22 12C22.8014 12.598 22.8013 12.5983 22.8011 12.5986L22.7992 12.601L22.7954 12.6061L22.7827 12.6228C22.7721 12.6367 22.7572 12.6562 22.7381 12.6809C22.6997 12.7302 22.6445 12.8003 22.5731 12.8881C22.4305 13.0638 22.2231 13.3112 21.9576 13.6063C21.4277 14.1953 20.6604 14.9815 19.7092 15.7699C17.8352 17.3233 15.1095 19 12 19C8.89043 19 6.16479 17.3233 4.29075 15.7699C3.33955 14.9815 2.57226 14.1953 2.04239 13.6063C1.77688 13.3112 1.56946 13.0638 1.42682 12.8881C1.35547 12.8003 1.30022 12.7302 1.26192 12.6809C1.24276 12.6562 1.22783 12.6367 1.21723 12.6228L1.20459 12.6061L1.20073 12.601L1.19942 12.5992C1.19921 12.599 1.19852 12.598 1.99998 12C1.19852 11.402 1.19871 11.4017 1.19892 11.4014L1.20073 11.399L1.20459 11.3939L1.21723 11.3772C1.22783 11.3633 1.24276 11.3438 1.26192 11.3191C1.30022 11.2698 1.35547 11.1997 1.42682 11.1119C1.56946 10.9362 1.77688 10.6888 2.04239 10.3937C2.57226 9.8047 3.33955 9.01854 4.29075 8.2301ZM1.99998 12L1.19892 11.4014C0.934203 11.7562 0.933805 12.2433 1.19852 12.598L1.99998 12ZM3.29218 12C3.36394 12.083 3.44307 12.1729 3.52927 12.2687C4.01146 12.8047 4.70864 13.5185 5.56708 14.2301C7.31233 15.6767 9.58669 17 12 17C14.4133 17 16.6876 15.6767 18.4329 14.2301C19.2913 13.5185 19.9885 12.8047 20.4707 12.2687C20.5569 12.1729 20.636 12.083 20.7078 12C20.636 11.917 20.5569 11.8271 20.4707 11.7313C19.9885 11.1953 19.2913 10.4815 18.4329 9.7699C16.6876 8.32327 14.4133 7 12 7C9.58669 7 7.31233 8.32327 5.56708 9.7699C4.70864 10.4815 4.01146 11.1953 3.52927 11.7313C3.44307 11.8271 3.36394 11.917 3.29218 12ZM22 12L22.8011 12.5986C23.0658 12.2438 23.0662 11.7567 22.8014 11.402L22 12ZM8.49998 12C8.49998 10.067 10.067 8.5 12 8.5C13.933 8.5 15.5 10.067 15.5 12C15.5 13.933 13.933 15.5 12 15.5C10.067 15.5 8.49998 13.933 8.49998 12ZM12 10.5C11.1716 10.5 10.5 11.1716 10.5 12C10.5 12.8284 11.1716 13.5 12 13.5C12.8284 13.5 13.5 12.8284 13.5 12C13.5 11.1716 12.8284 10.5 12 10.5Z"
        fill="currentColor" />
</svg>