<svg width="16" height="16" viewBox="0 0 16 16" fill="none" xmlns="http://www.w3.org/2000/svg">
    <g clip-path="url(#clip0)">
        <path
            d="M0.363648 10.1818C0.162921 10.1818 0 10.0189 0 9.8182V6.18182C0 5.9811 0.162921 5.81818 0.363648 5.81818C0.564375 5.81818 0.727296 5.9811 0.727296 6.18182V9.8182C0.727262 10.0189 0.564375 10.1818 0.363648 10.1818Z"
            fill="currentColor" />
        <path
            d="M2.54547 13.0909C2.34474 13.0909 2.18182 12.928 2.18182 12.7272V3.27271C2.18182 3.07198 2.34474 2.90906 2.54547 2.90906C2.74619 2.90906 2.90908 3.07198 2.90908 3.27271V12.7272C2.90908 12.928 2.74619 13.0909 2.54547 13.0909Z"
            fill="currentColor" />
        <path
            d="M4.72729 16C4.52656 16 4.36364 15.8371 4.36364 15.6364V0.363614C4.36364 0.162921 4.52656 0 4.72729 0C4.92801 0 5.09093 0.162921 5.09093 0.363648V15.6364C5.0909 15.8371 4.92801 16 4.72729 16Z"
            fill="currentColor" />
        <path
            d="M6.90911 15.2727C6.70838 15.2727 6.54546 15.1098 6.54546 14.9091V1.09091C6.54546 0.890185 6.70838 0.727264 6.90911 0.727264C7.10983 0.727264 7.27272 0.890185 7.27272 1.09091V14.9091C7.27272 15.1098 7.10983 15.2727 6.90911 15.2727Z"
            fill="currentColor" />
        <path
            d="M9.09093 12.3637C8.8902 12.3637 8.72728 12.2007 8.72728 12V4C8.72728 3.79927 8.8902 3.63635 9.09093 3.63635C9.29165 3.63635 9.45458 3.79927 9.45458 4V12C9.45454 12.2007 9.29165 12.3637 9.09093 12.3637Z"
            fill="currentColor" />
        <path
            d="M11.2727 15.2727C11.072 15.2727 10.9091 15.1098 10.9091 14.9091V1.09091C10.9091 0.890185 11.072 0.727264 11.2727 0.727264C11.4735 0.727264 11.6364 0.890185 11.6364 1.09091V14.9091C11.6364 15.1098 11.4735 15.2727 11.2727 15.2727Z"
            fill="currentColor" />
        <path
            d="M13.4546 12.3637C13.2538 12.3637 13.0909 12.2007 13.0909 12V4C13.0909 3.79927 13.2538 3.63635 13.4546 3.63635C13.6553 3.63635 13.8182 3.79927 13.8182 4V12C13.8182 12.2007 13.6553 12.3637 13.4546 12.3637Z"
            fill="currentColor" />
        <path
            d="M15.6364 10.1818C15.4357 10.1818 15.2727 10.0189 15.2727 9.8182V6.18182C15.2727 5.9811 15.4357 5.81818 15.6364 5.81818C15.8371 5.81818 16 5.9811 16 6.18182V9.8182C16 10.0189 15.8371 10.1818 15.6364 10.1818Z"
            fill="currentColor" />
        <path
            d="M0.363648 10.1818C0.162921 10.1818 0 10.0189 0 9.8182V6.18182C0 5.9811 0.162921 5.81818 0.363648 5.81818C0.564375 5.81818 0.727296 5.9811 0.727296 6.18182V9.8182C0.727262 10.0189 0.564375 10.1818 0.363648 10.1818Z"
            fill="currentColor" />
        <path
            d="M2.54547 13.0909C2.34474 13.0909 2.18182 12.928 2.18182 12.7272V3.27271C2.18182 3.07198 2.34474 2.90906 2.54547 2.90906C2.74619 2.90906 2.90908 3.07198 2.90908 3.27271V12.7272C2.90908 12.928 2.74619 13.0909 2.54547 13.0909Z"
            fill="currentColor" />
        <path
            d="M4.72729 16C4.52656 16 4.36364 15.8371 4.36364 15.6364V0.363614C4.36364 0.162921 4.52656 0 4.72729 0C4.92801 0 5.09093 0.162921 5.09093 0.363648V15.6364C5.0909 15.8371 4.92801 16 4.72729 16Z"
            fill="currentColor" />
        <path
            d="M6.90911 15.2727C6.70838 15.2727 6.54546 15.1098 6.54546 14.9091V1.09091C6.54546 0.890185 6.70838 0.727264 6.90911 0.727264C7.10983 0.727264 7.27272 0.890185 7.27272 1.09091V14.9091C7.27272 15.1098 7.10983 15.2727 6.90911 15.2727Z"
            fill="currentColor" />
        <path
            d="M9.09093 12.3637C8.8902 12.3637 8.72728 12.2007 8.72728 12V4C8.72728 3.79927 8.8902 3.63635 9.09093 3.63635C9.29165 3.63635 9.45458 3.79927 9.45458 4V12C9.45454 12.2007 9.29165 12.3637 9.09093 12.3637Z"
            fill="currentColor" />
        <path
            d="M11.2727 15.2727C11.072 15.2727 10.9091 15.1098 10.9091 14.9091V1.09091C10.9091 0.890185 11.072 0.727264 11.2727 0.727264C11.4735 0.727264 11.6364 0.890185 11.6364 1.09091V14.9091C11.6364 15.1098 11.4735 15.2727 11.2727 15.2727Z"
            fill="currentColor" />
        <path
            d="M13.4546 12.3637C13.2538 12.3637 13.0909 12.2007 13.0909 12V4C13.0909 3.79927 13.2538 3.63635 13.4546 3.63635C13.6553 3.63635 13.8182 3.79927 13.8182 4V12C13.8182 12.2007 13.6553 12.3637 13.4546 12.3637Z"
            fill="currentColor" />
        <path
            d="M15.6364 10.1818C15.4357 10.1818 15.2727 10.0189 15.2727 9.8182V6.18182C15.2727 5.9811 15.4357 5.81818 15.6364 5.81818C15.8371 5.81818 16 5.9811 16 6.18182V9.8182C16 10.0189 15.8371 10.1818 15.6364 10.1818Z"
            fill="currentColor" />
    </g>
    <defs>
        <clipPath id="clip0">
            <rect width="16" height="16" fill="currentColor" />
        </clipPath>
    </defs>
</svg>