<svg width="24" height="24" viewBox="0 0 24 24" fill="none" xmlns="http://www.w3.org/2000/svg">
<path d="M15.48 0.0510691C15.2745 0.0960691 15.06 0.195069 14.91 0.318069C14.868 0.354069 14.8125 0.393069 14.7885 0.406569C14.7645 0.420069 14.133 1.03807 13.3845 1.77907C12.6345 2.52157 11.9805 3.16357 11.928 3.20857C11.877 3.25357 11.82 3.31207 11.8035 3.33907C11.787 3.36757 10.0875 5.06107 8.02797 7.10407C1.73699 13.3441 0.392992 14.6836 0.292492 14.8051C0.188992 14.9311 0.100492 15.0886 0.0494924 15.2326C0.0104925 15.3451 0.00749255 15.3721 0.00299256 15.6421C-0.00300743 15.9601 0.00899255 16.0276 0.104992 16.2391C0.193492 16.4356 0.260992 16.5091 1.08599 17.3281C2.00399 18.2401 1.99349 18.2326 2.19599 18.2311C2.32649 18.2311 2.39699 18.2011 2.56949 18.0766C2.93099 17.8141 3.32098 17.6476 3.70348 17.5936C3.99898 17.5516 4.42498 17.5996 4.72498 17.7076C5.78398 18.0916 6.39298 19.2256 6.12748 20.3206C6.05098 20.6356 5.89648 20.9446 5.69398 21.1876C5.59048 21.3106 5.56648 21.3526 5.54098 21.4501C5.51098 21.5671 5.52148 21.6526 5.57998 21.7726C5.61748 21.8506 5.72998 21.9676 6.43798 22.6741C6.93898 23.1721 7.28547 23.5066 7.33947 23.5411C7.46097 23.6206 7.63047 23.6956 7.76697 23.7331C7.85547 23.7571 7.92897 23.7646 8.08497 23.7646C8.30547 23.7661 8.40897 23.7466 8.60247 23.6716C8.86197 23.5711 8.52747 23.8981 14.646 17.7886C18.8129 13.6276 20.3429 12.1081 20.3804 12.0961C20.5094 12.0511 20.6099 11.9461 20.6624 11.8021C20.6924 11.7196 20.7494 11.6596 22.0874 10.3321C22.8554 9.57157 23.5154 8.90857 23.5544 8.85907C23.7464 8.62357 23.8439 8.27557 23.8049 7.96207C23.7824 7.77757 23.7134 7.57357 23.6204 7.42207C23.5544 7.31257 23.4494 7.20157 22.7294 6.48757C22.1969 5.95957 21.8864 5.66257 21.8369 5.63407C21.7754 5.59807 21.7379 5.58907 21.6449 5.58307C21.4889 5.57407 21.4244 5.59807 21.2414 5.73157C20.6894 6.13657 20.0849 6.27307 19.4399 6.14107C19.0079 6.05107 18.6449 5.85307 18.3209 5.52907C17.9954 5.20207 17.8064 4.85407 17.7059 4.39507C17.6654 4.21207 17.6654 3.70807 17.7059 3.52507C17.7734 3.21307 17.9129 2.90557 18.1124 2.62657C18.2474 2.43757 18.2774 2.36557 18.2759 2.23357C18.2744 2.03407 18.2804 2.04157 17.3744 1.13857C16.5734 0.340569 16.4925 0.267069 16.2945 0.166569C16.065 0.0510691 15.714 0.00156913 15.48 0.0510691ZM15.9165 1.04257C15.945 1.05757 16.2495 1.35007 16.5929 1.69357L17.2184 2.31757L17.1299 2.47507C16.7549 3.13507 16.6304 3.83107 16.7639 4.52857C17.0309 5.92807 18.1799 6.98257 19.5974 7.12657C19.8389 7.15057 20.1959 7.13707 20.4074 7.09507C20.7179 7.03357 21.1019 6.88507 21.4394 6.69457L21.5399 6.63757L22.1684 7.26757C22.6379 7.73857 22.8059 7.91557 22.8284 7.96507C22.8629 8.04157 22.8689 8.17507 22.8404 8.23507C22.8299 8.25607 22.2239 8.86807 21.4934 9.59707L20.1644 10.9216L20.1074 10.8841C19.8719 10.7236 19.5614 10.8106 19.4219 11.0731C19.3934 11.1271 19.3874 11.1616 19.3874 11.2741C19.3874 11.3986 19.3919 11.4181 19.4369 11.5051L19.4864 11.6011L13.917 17.1706C9.79197 21.2956 8.32947 22.7491 8.27997 22.7746C8.18247 22.8226 7.99947 22.8211 7.90497 22.7716C7.85997 22.7491 7.62747 22.5271 7.21797 22.1206C6.87898 21.7816 6.59998 21.4981 6.59998 21.4906C6.59998 21.4831 6.63298 21.4216 6.67348 21.3541C6.85498 21.0526 6.97798 20.7631 7.05747 20.4526C7.12647 20.1826 7.14597 19.9861 7.13547 19.6906C7.10697 18.8776 6.78298 18.1366 6.20398 17.5561C5.71198 17.0656 5.11948 16.7656 4.42348 16.6546C4.22698 16.6246 3.76198 16.6201 3.59248 16.6471C3.19798 16.7116 2.79899 16.8616 2.41499 17.0896L2.27249 17.1751L1.64699 16.5481C0.94799 15.8491 0.95549 15.8581 0.95549 15.6661C0.95549 15.5866 0.96299 15.5431 0.98849 15.4921C1.01399 15.4396 1.94699 14.5036 4.91698 11.5486C7.05897 9.41707 9.57447 6.91507 10.5045 5.98957L12.1965 4.30507L12.2685 4.35457C12.366 4.42207 12.4575 4.44607 12.582 4.43707C12.75 4.42507 12.8925 4.33057 12.9705 4.17757C13.0455 4.03207 13.0305 3.81907 12.936 3.69457C12.9165 3.66907 12.9 3.64057 12.9 3.63307C12.9 3.62407 13.479 3.04207 14.187 2.34007C15.027 1.50307 15.4905 1.05307 15.525 1.03807C15.642 0.990069 15.8145 0.991569 15.9165 1.04257Z" fill="white"/>
<path d="M13.6125 4.94395L13.4475 5.05495L13.4385 5.14045C13.4325 5.18845 13.428 5.28744 13.4265 5.36244C13.425 5.52894 13.4025 5.49744 13.854 5.95943L14.1825 6.29692L14.3775 6.35842C14.4855 6.39292 14.5815 6.41992 14.592 6.41992C14.601 6.41992 14.6835 6.36592 14.7735 6.29992L14.937 6.17843L14.9475 5.97443C14.958 5.77643 14.958 5.76743 14.9235 5.70294C14.9025 5.66394 14.7465 5.49744 14.5455 5.29794L14.2035 4.95745L14.013 4.89295C13.9095 4.85845 13.8135 4.82995 13.8 4.83145C13.788 4.83145 13.704 4.88245 13.6125 4.94395Z" fill="white"/>
<path d="M15.6134 6.94515L15.4544 7.06365L15.4454 7.14315C15.4394 7.18665 15.4349 7.28265 15.4349 7.35616C15.4349 7.54516 15.4544 7.57516 15.8579 7.97417L16.1925 8.30717L16.38 8.36867C16.4835 8.40318 16.575 8.43018 16.5855 8.43018C16.5945 8.43018 16.68 8.37617 16.7745 8.30867L16.947 8.18717L16.9575 7.97867L16.968 7.77166L16.914 7.68466C16.881 7.63066 16.737 7.47316 16.5345 7.27215L16.2075 6.94665L16.0125 6.88665C15.9044 6.85215 15.8069 6.82515 15.7949 6.82515C15.7829 6.82665 15.7004 6.87915 15.6134 6.94515Z" fill="white"/>
<path d="M17.6295 8.94141C17.439 9.07641 17.445 9.06141 17.445 9.33591C17.445 9.49191 17.4465 9.50241 17.49 9.56841C17.514 9.60591 17.685 9.78741 17.868 9.96891L18.2025 10.3019L18.4005 10.3664L18.597 10.4309L18.777 10.3124L18.9555 10.1939L18.966 9.97791L18.9765 9.76341L18.9015 9.67041C18.861 9.61941 18.687 9.43791 18.5145 9.26841L18.2025 8.95791L17.9985 8.89191L17.796 8.82441L17.6295 8.94141Z" fill="white"/>
<path d="M11.9835 9.97649C11.403 10.4805 10.9125 10.9065 10.896 10.923C10.863 10.9515 10.8615 10.9515 9.56101 10.3605C8.84401 10.0335 8.25601 9.76949 8.25301 9.77099C8.25151 9.77399 8.50201 10.3725 8.81251 11.1015L9.37501 12.426L9.33151 12.4725C9.30901 12.4965 8.87251 12.9765 8.36251 13.5375C7.67251 14.295 7.44301 14.559 7.46401 14.5605C7.47901 14.5635 8.11951 14.5125 8.88451 14.448C9.84001 14.3685 10.281 14.3355 10.2885 14.3475C10.296 14.355 10.614 14.916 10.995 15.5925C11.376 16.269 11.694 16.8285 11.7015 16.8375C11.7105 16.8465 11.715 16.8465 11.7165 16.8375C11.7165 16.8285 11.8575 16.1985 12.027 15.435L12.3375 14.0475L13.7295 13.7685C14.4945 13.614 15.1245 13.485 15.129 13.482C15.132 13.4775 14.58 13.1415 13.902 12.735C13.2225 12.3285 12.666 11.9955 12.666 11.994C12.6645 11.994 12.75 11.334 12.855 10.53C12.9615 9.72599 13.0455 9.06599 13.0425 9.06299C13.041 9.05999 12.5625 9.47099 11.9835 9.97649ZM11.7375 11.985C11.6985 12.2505 11.67 12.4695 11.673 12.471C11.757 12.5415 12.198 12.816 12.3525 12.8955C12.4755 12.9585 12.5535 13.0065 12.54 13.011C12.528 13.014 12.4035 13.0425 12.2625 13.0725C11.9475 13.1385 11.538 13.2375 11.5245 13.2495C11.52 13.2555 11.493 13.386 11.466 13.5405C11.4225 13.7895 11.3715 14.052 11.3475 14.1585C11.34 14.1885 11.3235 14.1705 11.232 14.0235C11.1735 13.929 11.055 13.728 10.968 13.575C10.881 13.422 10.809 13.296 10.806 13.293C10.7985 13.2825 9.94051 13.353 9.81001 13.374C9.75901 13.3815 9.76501 13.374 9.93901 13.197C10.14 12.9945 10.47 12.6315 10.47 12.615C10.47 12.609 10.4295 12.507 10.3785 12.3885C10.2885 12.1755 10.095 11.6895 10.095 11.676C10.095 11.673 10.1805 11.7135 10.287 11.766C10.5285 11.8875 11.022 12.0945 11.046 12.0855C11.0565 12.081 11.172 11.9805 11.3025 11.862C11.4345 11.7435 11.5995 11.5995 11.67 11.544C11.7825 11.454 11.7975 11.445 11.802 11.472C11.805 11.49 11.775 11.721 11.7375 11.985Z" fill="white"/>
</svg>
