<svg width="24" height="24" viewBox="0 0 24 24" fill="none" xmlns="http://www.w3.org/2000/svg">
    <path fill-rule="evenodd" clip-rule="evenodd"
        d="M12 23C18.1 23 23 18.1 23 12C23 8.49017 21.3778 5.37763 18.8382 3.36716C18.7038 3.26076 18.5668 3.15745 18.4274 3.05733C16.6224 1.76131 14.4044 1 12 1C5.9 1 1 5.9 1 12C1 13.6835 1.37321 15.2756 2.04185 16.6985C2.10376 16.8302 2.16821 16.9605 2.23513 17.0893C4.06415 20.6095 7.73936 23 12 23ZM4.8 10.9C4.8 10.9577 4.83333 11.0155 4.9 11.1309C4.9488 11.2155 5.01547 11.3309 5.1 11.5C5.3 11.8 5.6 12.3 5.8 12.7C6.1 13.2 6.6 13.7 7.3 13.9C8.1 14.1 8.8 13.8 9.5 13.4C10.2 13 10.8 12.4 10.9 11.6C10.9882 10.9824 10.6094 10.4427 10.3817 10.1182C10.3513 10.0748 10.3236 10.0353 10.3 10C9.7 9.3 9.5 9 9.7 8.6C9.8 8.3 9.9 8.2 10 8.1C10.1162 8.04189 10.2662 8.01754 10.45 7.98772C10.5825 7.96623 10.7325 7.94189 10.9 7.9C10.9607 7.87976 11.0337 7.85952 11.1157 7.83679C11.4388 7.74723 11.9012 7.61904 12.3 7.3C12.9 6.9 13.2 6.3 13.2 5.5C13.3 4.9 13.2 4.3 12.8 3.8C12.5168 3.44595 12.1332 3.19218 11.7559 3.00318C11.837 3.00107 11.9184 3 12 3C13.5831 3 15.066 3.401 16.3534 4.10777C15.4392 5.01513 14.7547 5.79372 14.3 6.4C14 6.9 13.7 7.4 13.7 7.9C13.7 8.58967 14.0353 8.9353 14.5 9.4C14.9 9.6 15.4 9.8 15.8 9.8C16.0144 9.8 16.2287 9.77128 16.4277 9.74463C16.6 9.72154 16.7608 9.7 16.9 9.7C17.4 9.5 17.7 9.4 18.2 9.5C18.3172 9.5 18.3657 9.53431 18.4059 9.56274C18.4343 9.58284 18.4586 9.6 18.5 9.6V9.9V9.97775C17.9563 9.93188 16.817 9.84354 15.8 10C15.2 10.1 14.4 10.3 13.9 10.8C13.2 11.3 12.8 12.1 12.9 13C13.1 14.7 14 15.6 14.7 16.2C14.9343 16.4343 15.1343 16.6 15.3 16.7373C15.4172 16.8343 15.5172 16.9172 15.6 17L15.7 17.2C15.7 17.5 15.6 17.9 15.4 18.6C15.1325 19.2242 14.7855 19.9278 14.2881 20.711C13.7103 20.8604 13.1094 20.9544 12.4912 20.9871C12.6264 20.5164 12.7 20.0459 12.7 19.6C12.7 19.1 12.5 18.7 12.2 18.4C12.0697 18.2697 11.8179 18.1413 11.5519 18.0056C11.0967 17.7734 10.6 17.5201 10.6 17.2C10.6 17 10.6 16.9 10.5 16.7C10.5 16.4 10.3 15.9 10 15.5C9.7 15.1 9.3 14.8 8.8 14.6C7.08553 13.8652 5.19348 14.5325 3.56218 15.159C3.19844 14.1777 3 13.1137 3 12C3 11.6721 3.01721 11.3484 3.05077 11.0299C4.08355 10.6612 4.54779 10.8159 4.8 10.9ZM7.8 11.9C7.8 11.9 8 12 8.5 11.7C8.66312 11.5913 8.7671 11.5047 8.83206 11.4403C8.80042 11.4041 8.75758 11.3576 8.7 11.3C8.65367 11.2228 8.58588 11.1289 8.50656 11.019C8.07229 10.4174 7.29266 9.33747 7.8 7.9C8.1 7.1 8.5 6.6 9.1 6.3C9.41504 6.17399 9.76978 6.08767 10.0642 6.01604C10.237 5.97399 10.389 5.93699 10.5 5.9C10.593 5.87676 10.6697 5.85892 10.734 5.84397C10.9465 5.7946 11.0232 5.77676 11.1 5.7C11.1 5.7 11.2 5.7 11.3 5.3C11.3 5.1 11.2 5 11.2 5C11.2 4.9 11 4.8 10.6 4.7C9.9221 4.40947 8.6815 4.4003 6.8782 4.58165C5.36567 5.62332 4.1931 7.11742 3.54976 8.87468C4.40143 8.74532 5.21574 8.84383 5.9 9.3C6.4 9.7 6.7 10.2 6.9 10.6C7.07846 10.838 7.18615 11.0405 7.28622 11.2287C7.35436 11.3569 7.41898 11.4785 7.5 11.6C7.7 11.9 7.8 11.9 7.8 11.9ZM4.5 17C6.4 16.2 7.4 16.2 8 16.4C8.5322 16.6661 8.7 17.2276 8.7 17.8C8.7 18.1 8.8 18.5 9.2 18.9C9.3251 19.0877 10.3984 19.6 10.7 19.6C10.7 19.9568 10.5981 20.3645 10.3945 20.8595C9.44007 20.6902 8.51446 20.3662 7.6637 19.9015C6.38681 19.204 5.30163 18.206 4.5 17ZM15.9 7.8C16 7.8 16.1 7.8 16.3 7.7C16.3932 7.68135 16.4969 7.65576 16.6103 7.62774C17.1053 7.50551 17.7865 7.33729 18.6 7.5C19.3 7.7 19.7 8 20.1 8.5C20.4 8.9 20.5 9.4 20.5 9.9C20.5 10.3 20.4 10.8 20.2 11.2C20 11.5 19.5 12 18.8 12C18.6254 12 18.4169 11.9831 18.182 11.964C17.6095 11.9175 16.8799 11.8582 16.1 12C15.6 12.1 15.3 12.2 15.1 12.4C15 12.5 14.9 12.6 14.9 12.8C15 13.7 15.4 14.2 16.1 14.7C16.22 14.88 16.448 15.06 16.676 15.24C16.828 15.36 16.98 15.48 17.1 15.6C17.4 16 17.7 16.5 17.7 17.2C17.7 17.8857 17.5081 18.5713 17.2183 19.3509C19.5127 17.7259 21 15.0489 21 12C21 9.34349 19.8709 6.96926 18.0625 5.32724C16.9635 6.26923 16.3239 7.0065 15.9 7.6C15.8482 7.67771 15.8098 7.74201 15.7814 7.79462C15.8245 7.8 15.8622 7.8 15.9 7.8Z"
        fill="currentColor" />
</svg>